<svg xmlns="http://www.w3.org/2000/svg" viewBox="0 0 1163.781 262.64">
  <defs>
    <style>
      .cls-1 {
        fill: #5a5a5a;
      }

      .cls-2 {
        fill: #e66040;
      }
    </style>
  </defs>
  <g id="Symbol_4_1" data-name="Symbol 4 – 1" transform="translate(-17 -202)">
    <g id="Symbol_3_1" data-name="Symbol 3 – 1" transform="translate(-175)">
      <path id="Path_48" data-name="Path 48" class="cls-1" d="M149.648-180.486q1.948,10.063,3.246,22.723l-25.32,8.44-25.32,8.115q-2.6-13.309-12.985-13.309-12.66,0-23.7,11.686-7.142,9.414-4.22,17.529,2.272,5.194,15.582,5.194a103.293,103.293,0,0,0,16.555-1.623,171.634,171.634,0,0,1,27.917-2.6q29.865,0,38.3,16.88a49.381,49.381,0,0,1,4.545,11.037q3.9,18.178-9.414,39.6Q138.935-28.566,102.578-9.738A81,81,0,0,1,63.3.325q-18.828,0-38.629-8.115Q29.54-25.32,42.525-59.4q12.985,7.142,25.645,7.142a33.835,33.835,0,0,0,11.686-2.272,73.373,73.373,0,0,0,19.8-6.492q12.335-5.843,11.037-12.335-1.3-7.791-16.231-7.791-9.738,0-28.242,3.246-18.5,4.22-28.566,4.22-13.309,0-20.775-4.869Q.649-85.7,0-101.929q-2.6-31.488,34.409-73.688,37.98-43.174,72.389-45.122Q140.558-222.362,149.648-180.486ZM160.685-12.011a1448.951,1448.951,0,0,0,46.1-198.34l77.583-10.712q13.309,88.3,49.342,204.183L274.625-3.246,266.834-39.6,228.2-35.383,221.388,1.3Zm97.709-65.9-13.309-77.258L232.1-77.583Zm128.872-72.065-.974,20.775a117.888,117.888,0,0,0,21.749-12.985q17.2-13.309,15.257-23.048-1.623-7.142-11.686-7.791-8.765-.325-23.372,2.922Q387.266-159.386,387.266-149.972Zm35.383-72.065q49.342,0,56.808,37.98,3.571,45.446-42.2,74.662,7.142,11.037,53.237,66.222Q471.666-26.294,442.451-1.3L386.292-83.1q-.325,39.278,2.272,71.415L335,1.948q4.545-156.14-1.3-209.7Q387.266-222.037,422.649-222.037Zm232.425,3.9q.649,13.634,2.272,53.562-12.66,12.985-48.692,52.912a304.321,304.321,0,0,0-23.7,25.969Q569.051-68.818,563.208-59.4l84.4-4.22,4.22,53.886Q558.014-7.466,497.635-.649L486.274-54.86q12.011-13.634,48.043-52.588l51.289-54.211q-31.163,2.6-65.572,7.466L510.3-209.377Z" transform="translate(489 431)"/>
      <g id="pets-circular-sign" transform="translate(192 202)">
        <g id="Group_60" data-name="Group 60">
          <path id="Path_34" data-name="Path 34" class="cls-2" d="M262.64,131.322C262.64,58.908,203.728,0,131.32,0S0,58.908,0,131.322,58.913,262.64,131.32,262.64,262.64,203.728,262.64,131.322ZM131.32,248.3A116.982,116.982,0,1,1,248.3,131.323,117.117,117.117,0,0,1,131.32,248.3Z"/>
          <path id="Path_35" data-name="Path 35" class="cls-2" d="M131.32,24.4A106.919,106.919,0,1,0,238.236,131.313,107.038,107.038,0,0,0,131.32,24.4Zm0,199.5A92.582,92.582,0,1,1,223.9,131.312,92.683,92.683,0,0,1,131.32,223.9Z"/>
          <path id="Path_36" data-name="Path 36" class="cls-2" d="M153.29,139.56a98.179,98.179,0,0,0-4.457-13.133,17.164,17.164,0,0,0-19.359-9.607c-4.1.884-7.785,2.944-11.416,5.024-4.091,2.336-8.13,4.784-12.331,6.91-8.043,4.076-16.2,7.927-24.273,11.932A22.344,22.344,0,0,0,73.42,147,33.668,33.668,0,0,0,66.2,164.7c-.6,6.776,1.438,12.508,7.173,16.582a24.613,24.613,0,0,0,9.315,3.925,78.78,78.78,0,0,0,23.368,1.078c3.069-.275,6.065-.168,8.8,1.419a41.481,41.481,0,0,1,4.889,3.174c4.037,3.164,7.976,6.469,11.985,9.675a22.1,22.1,0,0,0,13.322,5.325,47.373,47.373,0,0,0,5.092-.976c6.062-1.862,10.412-5.913,13.418-11.336,4.85-8.709,5.6-17.562.579-26.594A129.606,129.606,0,0,1,153.29,139.56Z"/>
          <path id="Path_37" data-name="Path 37" class="cls-2" d="M206.929,132.7c-1.194-4.6-3.416-8.58-7.663-11.019-5.461-3.134-10.921-2.408-15.971.884-8.854,5.773-12.452,14.457-13.1,24.874.187,1.587.308,3.369.64,5.11a20.743,20.743,0,0,0,1.208,4.037c2.166,5.161,5.7,8.82,11.435,9.791,4.644.794,8.756-.728,12.479-3.4C204.932,156.571,209.7,143.387,206.929,132.7Z"/>
          <path id="Path_38" data-name="Path 38" class="cls-2" d="M118.966,102.358c5.409,2.494,10.534,1.358,15.315-1.765,9.451-6.17,14.659-19.956,11.733-30.858-1.251-4.635-3.491-8.634-7.813-11.054-5.3-2.968-10.624-2.312-15.545.812-9.019,5.727-12.683,14.463-13.4,25.426a60.072,60.072,0,0,0,1.148,6.581C111.726,96.27,114.32,100.218,118.966,102.358Z"/>
          <path id="Path_39" data-name="Path 39" class="cls-2" d="M188.056,92.354c-.215-1.375-.4-3.654-.943-5.853a16.925,16.925,0,0,0-6.533-10.114c-4.873-3.494-11.29-3.435-17.045.24-6.249,3.986-9.94,9.854-11.854,16.874-1.7,6.212-1.624,12.377,1.177,18.313,2.949,6.238,8.568,9.481,15.032,8.688a18.664,18.664,0,0,0,10.7-5.367C184.807,109.193,187.691,101.774,188.056,92.354Z"/>
          <path id="Path_40" data-name="Path 40" class="cls-2" d="M91,125.063c9.782-6.343,15.012-20.771,11.537-31.9-1.536-4.918-4.245-8.932-9.206-10.9-5.519-2.184-10.653-.863-15.231,2.5C70.072,90.66,66.66,98.96,66.081,109.618a58.168,58.168,0,0,0,1.314,6.877C70.683,127.439,81.408,131.284,91,125.063Z"/>
        </g>
      </g>
    </g>
    <path id="Path_57" data-name="Path 57" class="cls-1" d="M13.785,1.723A21.356,21.356,0,0,1,8.012-.6,12.18,12.18,0,0,1,3.532-5a20.138,20.138,0,0,1-2.326-5.686,13.406,13.406,0,0,1,.172-6.375,11.14,11.14,0,0,1,2.585-5.514,20.693,20.693,0,0,1,4.652-4.049,19,19,0,0,1,5.945-2.412,19.182,19.182,0,0,1,6.462-.431,15.812,15.812,0,0,1,6.031,2.671A17.716,17.716,0,0,1,31.446-22.4a15.828,15.828,0,0,1,2.326,5.514,11.9,11.9,0,0,1-.172,6.031A17.547,17.547,0,0,1,31.1-5,13.9,13.9,0,0,1,26.535-.6a19.73,19.73,0,0,1-5.945,2.326A16.959,16.959,0,0,1,13.785,1.723ZM43.766-54.966q.689-47.212-1.9-56.345,27.4-6.548,43.938-5.514t24.64,9.132q9.132,8.443,9.3,24.985A45,45,0,0,1,113.9-59.274,47.515,47.515,0,0,1,98.732-44.628q-11.2,7.409-26.88,9.822-.689,11.028,1.206,31.7L42.56,0Q43.422-15.163,43.766-54.966Zm27.225-7.065q10.166-.172,16.542-6.2a17.5,17.5,0,0,0,5.686-11.372q1.551-8.96-6.2-11.889Q80.985-93.908,70.3-90.462ZM123.028-110.1l31.532-5a685.328,685.328,0,0,0-3.791,78.228l32.911-4.135,3.1,28.6Q161.28-10.855,123.2-1.9Z" transform="translate(994 422)"/>
  </g>
</svg>
